<svg role="img" viewBox="0 0 24 24" xmlns="http://www.w3.org/2000/svg">
  <path d="M13.983 11.078h2.119a.186.186 0 00.186-.185V9.006a.186.186 0 00-.186-.186h-2.119a.185.185 0 00-.185.185v1.888c0 .102.083.185.185.185m-2.954-5.43h2.118a.186.186 0 00.186-.186V3.574a.186.186 0 00-.186-.185h-2.118a.185.185 0 00-.185.185v1.888c0 .102.082.185.185.185m0 2.716h2.118a.187.187 0 00.186-.186V6.29a.186.186 0 00-.186-.185h-2.118a.185.185 0 00-.185.185v1.887c0 .102.082.185.185.186m-2.93 0h2.12a.186.186 0 00.184-.186V6.29a.185.185 0 00-.185-.185H8.1a.185.185 0 00-.185.185v1.887c0 .102.083.185.185.186m-2.964 0h2.119a.186.186 0 00.185-.186V6.29a.185.185 0 00-.185-.185H5.136a.186.186 0 00-.186.185v1.887c0 .102.084.185.186.186m5.893 2.715h2.118a.186.186 0 00.186-.185V9.006a.186.186 0 00-.186-.186h-2.118a.185.185 0 00-.185.185v1.888c0 .102.082.185.185.185m-2.93 0h2.12a.185.185 0 00.184-.185V9.006a.185.185 0 00-.184-.186h-2.12a.185.185 0 00-.184.185v1.888c0 .102.083.185.185.185m-2.964 0h2.119a.185.185 0 00.185-.185V9.006a.185.185 0 00-.184-.186h-2.12a.186.186 0 00-.186.186v1.887c0 .102.084.185.186.185m-2.92 0h2.12a.186.186 0 00.184-.185V9.006a.185.185 0 00-.184-.186h-2.12a.185.185 0 00-.185.185v1.888c0 .102.083.185.185.185m-2.964 0h2.119a.186.186 0 00.186-.185V9.006a.186.186 0 00-.186-.186H2.1a.186.186 0 00-.186.186v1.887c0 .102.084.185.186.185m.001 2.716h2.119a.185.185 0 00.186-.185v-1.888a.186.186 0 00-.186-.185H2.1a.187.187 0 00-.186.185v1.888c0 .102.084.185.186.185zm23.814-12.448c-.764-.575-2.517-.79-3.858-.543-.197-1.52-.985-2.838-2.392-4.031l-.485-.32-.328.483c-.692 1.038-1.015 2.479-.923 3.86a5.765 5.765 0 00.568 2.057 7.908 7.908 0 01-2.807.567H.101a.1.1 0 00-.1.1C-.028 9.273.04 12.07.831 14.166c.85 2.217 2.254 3.851 4.17 4.857 2.154 1.12 5.663 1.758 9.607.978a18.209 18.209 0 006.118-2.535 17.607 17.607 0 004.33-4.452c1.888.1 3.73-.46 4.514-2.334l.22-.515-.485-.32z" fill="#2496ED"/>
</svg>
